<svg
  width="116"
  height="115"
  viewBox="0 0 116 115"
  fill="none"
  xmlns="http://www.w3.org/2000/svg"
>
  <path
    opacity="0.4"
    d="M77.1666 9.58334H29.25C13.9166 9.58334 10.0833 13.4167 10.0833 28.75V57.021C10.2271 71.5397 14.2521 75.2292 29.25 75.2292H40.0312V92.2396H24.2188C22.2542 92.2396 20.625 93.8688 20.625 95.8333C20.625 97.7979 22.2542 99.4271 24.2188 99.4271H59.1979C58.4791 97.5583 58.1437 95.2104 58.0958 92.2396H47.2187V75.2292H58.0958V57.021V50.7439C58.0958 40.4897 61.4979 37.0875 71.752 37.0875H92.2604C93.7458 37.0875 95.1354 37.1832 96.3333 37.327V28.75C96.3333 13.4167 92.5 9.58334 77.1666 9.58334Z"
    fill="currentColor"
  />
  <path
    d="M96.3333 37.327C95.1354 37.1832 93.7458 37.0875 92.2604 37.0875H71.752C61.4979 37.0875 58.0958 40.4897 58.0958 50.7439V92.2396C58.1437 95.2104 58.4792 97.5583 59.1979 99.4271C60.875 103.788 64.6604 105.417 71.752 105.417H92.2604C102.515 105.417 105.917 102.015 105.917 91.7605V50.7439C105.917 41.9751 103.425 38.2374 96.3333 37.327ZM82.0063 48.3481C86.175 48.3481 89.5291 51.702 89.5291 55.8707C89.5291 60.0395 86.175 63.3937 82.0063 63.3937C77.8375 63.3937 74.4833 60.0395 74.4833 55.8707C74.4833 51.702 77.8375 48.3481 82.0063 48.3481ZM82.0063 91.7605C76.3521 91.7605 71.752 87.1605 71.752 81.5063C71.752 79.1584 72.5667 76.9542 73.9084 75.2292C75.7771 72.8334 78.7 71.2521 82.0063 71.2521C84.5938 71.2521 86.9417 72.2105 88.7146 73.7438C90.8708 75.6605 92.2604 78.4396 92.2604 81.5063C92.2604 87.1605 87.6604 91.7605 82.0063 91.7605Z"
    fill="currentColor"
  />
  <path
    opacity="0.4"
    d="M92.2604 81.5063C92.2604 87.1605 87.6605 91.7606 82.0063 91.7606C76.3521 91.7606 71.7521 87.1605 71.7521 81.5063C71.7521 79.1584 72.5667 76.9542 73.9084 75.2292C75.7771 72.8334 78.7001 71.2521 82.0063 71.2521C84.5938 71.2521 86.9417 72.2105 88.7146 73.7438C90.8709 75.6605 92.2604 78.4396 92.2604 81.5063Z"
    fill="currentColor"
  />
  <path
    opacity="0.4"
    d="M82.0063 63.3937C86.1611 63.3937 89.5291 60.0255 89.5291 55.8707C89.5291 51.7159 86.1611 48.3481 82.0063 48.3481C77.8515 48.3481 74.4833 51.7159 74.4833 55.8707C74.4833 60.0255 77.8515 63.3937 82.0063 63.3937Z"
    fill="currentColor"
  />
</svg>
