<svg width="844" height="849" viewBox="0 0 844 849" fill="none" xmlns="http://www.w3.org/2000/svg">
<rect width="844" height="849" fill="#FFFBFA"/>
<path fill-rule="evenodd" clip-rule="evenodd" d="M656.175 95.9077C627.871 79.9692 595.86 72 560.143 72C533.186 72 509.262 77.5785 488.371 88.7355C467.479 99.8924 450.294 115.432 436.816 135.356C428.414 147.657 421.675 161.221 416.599 176.05V150.896C416.599 126.191 411.544 107.065 401.436 93.517C390.653 80.7662 375.827 74.3907 356.957 74.3907C338.088 74.3907 323.598 80.7662 313.49 93.517C303.381 107.065 298.327 126.191 298.327 150.896V315.378C290.165 305.089 280.255 296.854 268.595 290.672C254.806 283.363 239.017 279.708 221.225 279.708C197.652 279.708 176.524 284.929 157.844 295.371C139.607 306.336 125.152 320.956 114.477 339.23C104.247 357.504 99.1321 378.128 99.1321 401.102C99.1321 429.296 105.359 451.487 117.813 467.672C130.267 484.38 150.505 496.389 178.526 503.699C206.547 511.009 244.132 514.663 291.279 514.663H314.63V531.11C314.63 557.217 309.737 576.013 299.952 587.5L378.679 608.646C385.827 592.592 390.478 573.224 392.632 550.541C418.822 572.354 441.756 591.604 447.64 604.915C447.64 604.915 492.573 581.236 519.129 568.086C511.295 569.994 508.818 570.597 508.812 570.564C508.8 570.502 517.944 568.086 515.664 568.086C480.621 568.086 455.686 559.32 440.86 541.788C426.034 524.255 418.62 495.566 418.62 455.72V430.617H454.001C525.436 430.617 582.382 425.038 624.838 413.881C667.295 402.724 697.958 384.395 716.828 358.893C735.697 334.189 745.132 300.319 745.132 257.285C745.132 222.22 737.382 190.742 721.882 162.85C705.708 134.957 683.806 112.643 656.175 95.9077Z" fill="#35C23B"/>
<path d="M71.6321 777.27C71.6321 777.27 63.7835 751.531 82.5093 715.498C102.127 678.606 129.324 647.291 164.1 621.552C199.768 595.813 241.678 576.081 289.829 562.353C338.874 547.768 393.268 540.476 453.011 540.476C499.38 540.476 546.194 545.624 593.455 555.919C641.607 565.356 683.071 579.941 717.846 599.674C738.355 609.97 753.069 624.126 761.986 642.143C770.902 660.16 772.686 673.924 772.686 698.767C770.902 717.642 772.686 773.025 772.686 773.025L71.6321 777.27Z" fill="#D4959C"/>
<path fill-rule="evenodd" clip-rule="evenodd" d="M744.937 617.171C751.391 627.122 757.844 637.405 764.297 647.688C766.124 650.597 767.949 653.506 769.774 656.407C774.377 670.101 774.632 685.446 774.632 700.388V774.15L70.132 777.161C72.4795 737.401 70.132 739.24 77.1637 730.504C102.142 742.501 127.121 728.029 152.099 713.556C155.266 711.721 158.434 709.886 161.601 708.105C196.445 688.51 231.287 675.446 266.129 668.916C300.972 662.384 335.816 662.384 370.658 675.446C378.4 678.35 386.144 681.898 393.886 685.446C420.986 697.864 448.087 710.282 475.187 695.041C497.359 682.572 519.532 651.588 541.704 620.604C554.375 602.899 567.044 585.194 579.714 570.943C584.524 565.533 589.334 560.621 594.148 556.242C594.565 556.331 594.982 556.422 595.399 556.512C643.566 565.92 685.043 580.459 719.829 600.129C729.482 604.958 737.851 610.638 744.937 617.171Z" fill="#504D49"/>
</svg>
